<svg xmlns="http://www.w3.org/2000/svg" xmlns:xlink="http://www.w3.org/1999/xlink" width="66" height="66" viewBox="0 0 66 66">
  <defs>
    <clipPath id="clip-path">
      <rect id="Rectangle_982" data-name="Rectangle 982" width="66" height="66" transform="translate(312 95)" fill="#fff"/>
    </clipPath>
  </defs>
  <g id="Mask_Group_4" data-name="Mask Group 4" transform="translate(-312 -95)" clip-path="url(#clip-path)">
    <g id="mic_black_24dp" transform="translate(312 95)">
      <g id="Group_193" data-name="Group 193">
        <rect id="Rectangle_979" data-name="Rectangle 979" width="66" height="66" fill="none"/>
        <rect id="Rectangle_980" data-name="Rectangle 980" width="66" height="66" fill="none"/>
        <rect id="Rectangle_981" data-name="Rectangle 981" width="66" height="66" fill="none"/>
      </g>
      <g id="Group_195" data-name="Group 195">
        <g id="Group_194" data-name="Group 194">
          <path id="Path_411" data-name="Path 411" d="M33,38.5a8.239,8.239,0,0,0,8.25-8.25V13.75a8.25,8.25,0,0,0-16.5,0v16.5A8.239,8.239,0,0,0,33,38.5Z"/>
          <path id="Path_412" data-name="Path 412" d="M46.75,30.25a13.75,13.75,0,0,1-27.5,0h-5.5a19.237,19.237,0,0,0,16.5,19.03v8.47h5.5V49.28a19.237,19.237,0,0,0,16.5-19.03Z"/>
        </g>
      </g>
    </g>
  </g>
</svg>
