<svg xmlns="http://www.w3.org/2000/svg" width="64.279" height="64" viewBox="0 0 64.279 64">
  <path id="Path_413" data-name="Path 413" d="M33.14,24.273A8.727,8.727,0,1,1,24.374,33a8.772,8.772,0,0,1,8.765-8.727m0-5.818A14.546,14.546,0,1,0,47.748,33,14.583,14.583,0,0,0,33.14,18.455ZM3.922,35.909H9.765a2.909,2.909,0,1,0,0-5.818H3.922a2.909,2.909,0,1,0,0,5.818Zm52.592,0h5.844a2.909,2.909,0,1,0,0-5.818H56.514a2.909,2.909,0,1,0,0,5.818Zm-26.3-32V9.727a2.922,2.922,0,0,0,5.844,0V3.909a2.922,2.922,0,0,0-5.844,0Zm0,52.364v5.818a2.922,2.922,0,0,0,5.844,0V56.273a2.922,2.922,0,0,0-5.844,0ZM15.58,11.415a2.919,2.919,0,0,0-4.12,0,2.888,2.888,0,0,0,0,4.1l3.1,3.084a2.907,2.907,0,1,0,4.12-4.1ZM51.722,47.4a2.919,2.919,0,0,0-4.12,0,2.888,2.888,0,0,0,0,4.1l3.1,3.084a2.919,2.919,0,0,0,4.12,0,2.888,2.888,0,0,0,0-4.1Zm3.1-31.884a2.888,2.888,0,0,0,0-4.1,2.919,2.919,0,0,0-4.12,0L47.6,14.5a2.888,2.888,0,0,0,0,4.1,2.946,2.946,0,0,0,4.12,0ZM18.677,51.5a2.888,2.888,0,0,0,0-4.1,2.919,2.919,0,0,0-4.12,0l-3.1,3.084a2.888,2.888,0,0,0,0,4.1,2.946,2.946,0,0,0,4.12,0Z" transform="translate(-1 -1)"/>
</svg>
