<svg xmlns="http://www.w3.org/2000/svg" width="57.036" height="64" viewBox="0 0 57.036 64">
  <path id="Path_415" data-name="Path 415" d="M32.518,53.364c-3.921,0-7.129,2.618-7.129,5.818S28.6,65,32.518,65s7.13-2.618,7.13-5.818S36.439,53.364,32.518,53.364ZM11.13,1C7.208,1,4,3.618,4,6.818s3.208,5.818,7.13,5.818,7.13-2.618,7.13-5.818S15.051,1,11.13,1Zm0,17.455C7.208,18.455,4,21.073,4,24.273s3.208,5.818,7.13,5.818,7.13-2.618,7.13-5.818S15.051,18.455,11.13,18.455Zm0,17.455C7.208,35.909,4,38.527,4,41.727s3.208,5.818,7.13,5.818,7.13-2.618,7.13-5.818S15.051,35.909,11.13,35.909ZM53.907,12.636c3.921,0,7.13-2.618,7.13-5.818S57.828,1,53.907,1s-7.129,2.618-7.129,5.818S49.985,12.636,53.907,12.636ZM32.518,35.909c-3.921,0-7.129,2.618-7.129,5.818s3.208,5.818,7.129,5.818,7.13-2.618,7.13-5.818S36.439,35.909,32.518,35.909Zm21.389,0c-3.921,0-7.129,2.618-7.129,5.818s3.208,5.818,7.129,5.818,7.13-2.618,7.13-5.818S57.828,35.909,53.907,35.909Zm0-17.455c-3.921,0-7.129,2.618-7.129,5.818s3.208,5.818,7.129,5.818,7.13-2.618,7.13-5.818S57.828,18.455,53.907,18.455Zm-21.389,0c-3.921,0-7.129,2.618-7.129,5.818s3.208,5.818,7.129,5.818,7.13-2.618,7.13-5.818S36.439,18.455,32.518,18.455ZM32.518,1C28.6,1,25.389,3.618,25.389,6.818s3.208,5.818,7.129,5.818,7.13-2.618,7.13-5.818S36.439,1,32.518,1Z" transform="translate(-4 -1)"/>
</svg>
